<svg xmlns="http://www.w3.org/2000/svg" width="600" height="200" viewBox="0 0 600 200" version="1.1"><path d="" stroke="none" fill="#080404" fill-rule="evenodd"/><path d="M 305.501 47.971 C 295.699 58.987, 287.569 68, 287.434 68 C 287.298 68, 283.069 61.252, 278.035 53.004 C 273.002 44.756, 268.039 37.556, 267.007 37.004 C 265.208 36.041, 258 35.564, 258 36.408 C 258 36.632, 263.193 45.637, 269.540 56.417 L 281.079 76.019 273.476 84.760 C 262.058 97.886, 260.494 100.936, 260.529 110 C 260.563 118.888, 261.758 127, 263.033 127 C 263.534 127, 270.326 119.830, 278.126 111.067 L 292.309 95.134 300.257 108.567 C 304.628 115.955, 308.781 122, 309.485 122 C 311.044 122, 311.969 118.855, 311.985 113.500 C 311.994 110.346, 310.640 107.242, 305.585 98.828 L 299.172 88.155 310.672 75.828 C 325.030 60.436, 332 50.363, 332 45.004 C 332 41.077, 326.509 28.990, 324.412 28.299 C 323.813 28.102, 315.303 36.954, 305.501 47.971 M 405.615 43.750 C 404.671 46.927, 396 79.878, 396 80.288 C 396 80.510, 393.462 79.410, 390.359 77.845 C 380.350 72.797, 370.307 74.676, 366.307 82.347 C 363.845 87.067, 363.378 99.611, 365.434 105.800 C 367.399 111.716, 373.682 118.080, 379.433 119.978 C 384.886 121.778, 395.316 120.900, 398.739 118.353 C 402.246 115.744, 402.675 112.808, 400.167 108.559 L 398.185 105.199 405.592 77.521 C 409.667 62.299, 413 49.265, 413 48.557 C 413 46.671, 409.078 42, 407.495 42 C 406.747 42, 405.901 42.788, 405.615 43.750 M 202.299 45.960 C 200.538 47.033, 198.433 49.195, 197.622 50.764 C 196.811 52.333, 192.963 66.835, 189.070 82.991 L 181.993 112.365 183.815 115.933 C 185.993 120.196, 191.826 123.658, 193.593 121.736 C 194.217 121.056, 196.429 111.828, 198.507 101.228 C 202.112 82.840, 202.382 81.986, 204.393 82.609 C 205.552 82.968, 206.860 83.878, 207.300 84.631 C 208.434 86.573, 209.425 86.355, 212.954 83.385 C 215.305 81.407, 215.904 80.251, 215.413 78.635 C 214.225 74.730, 211.881 73, 207.778 73 C 204.524 73, 203.951 72.705, 204.376 71.250 C 204.656 70.287, 205.422 66.677, 206.078 63.226 C 206.733 59.775, 207.646 56.719, 208.106 56.435 C 209.386 55.643, 214.586 58.659, 216.806 61.480 C 217.896 62.866, 219.038 64, 219.343 64 C 220.590 64, 223.247 53.119, 222.614 50.600 C 221.094 44.543, 209.110 41.806, 202.299 45.960 M 130.667 54.667 C 129.332 56.001, 130.107 59.609, 132.777 64.500 C 134.279 67.250, 135.956 69.500, 136.504 69.500 C 137.052 69.500, 137.633 66.740, 137.795 63.366 C 138.016 58.758, 137.687 56.830, 136.473 55.616 C 134.818 53.961, 131.857 53.477, 130.667 54.667 M 421.667 54.667 C 421.300 55.033, 421 56.520, 421 57.971 C 421 61.140, 426.610 70.359, 428.011 69.493 C 429.602 68.510, 429.183 58.706, 427.443 56.223 C 425.939 54.075, 423.039 53.294, 421.667 54.667 M 127.638 78.193 C 119.057 106.506, 118.699 108.054, 119.858 111.857 C 121.397 116.904, 124.956 122.454, 125.968 121.384 C 126.427 120.898, 128.941 111.003, 131.554 99.396 L 136.305 78.293 134.402 74.451 C 133.356 72.338, 131.973 70.446, 131.328 70.247 C 130.619 70.028, 129.161 73.169, 127.638 78.193 M 420.713 70.750 C 420.491 71.162, 417.927 79.646, 415.016 89.603 C 410.975 103.420, 409.879 108.543, 410.385 111.241 C 411.077 114.928, 414.953 121.500, 416.436 121.500 C 416.907 121.500, 419.486 111.910, 422.166 100.188 L 427.039 78.876 425.076 74.438 C 423.246 70.302, 421.673 68.972, 420.713 70.750 M 450.284 72.950 C 438.984 77.017, 432.177 84.244, 429.386 95.138 C 427.947 100.757, 427.956 101.596, 429.500 105.640 C 431.300 110.351, 435.386 114.016, 440.899 115.862 C 446.244 117.651, 454.037 117.264, 458.265 114.998 C 461.920 113.039, 462 113.037, 462 114.916 C 462 119.994, 466.029 121.842, 469.267 118.250 C 472.808 114.322, 474.990 94.348, 472.076 92.547 C 471.610 92.259, 468.322 93.973, 464.769 96.356 C 457.213 101.422, 452.279 102.561, 447.155 100.420 C 441.844 98.201, 439.730 96.030, 441.181 94.282 C 444.745 89.988, 456.493 87.338, 464.550 89.010 C 471.009 90.351, 471.765 89.964, 475.662 83.314 C 479.027 77.571, 478.321 74.746, 472.989 72.612 C 467.532 70.429, 456.846 70.588, 450.284 72.950 M 234.261 76.557 C 224.144 81.599, 218.011 91.318, 217.218 103.568 C 216.462 115.238, 220.818 120.025, 232.151 119.978 C 247.593 119.915, 257.752 105.885, 256.843 85.878 C 256.524 78.852, 256.171 77.557, 254.127 75.902 C 250.502 72.966, 240.827 73.285, 234.261 76.557 M 339.329 76.427 C 329.224 81.132, 323.109 90.278, 321.509 103.080 C 320.162 113.862, 325.436 119.989, 336.071 119.996 C 343.933 120.002, 351.452 116.067, 355.685 109.734 C 361.101 101.630, 363.440 85.523, 360.365 77.508 C 358.761 73.328, 347.256 72.736, 339.329 76.427 M 147.648 76.137 C 142.201 79.303, 135.685 104.930, 137.926 114.372 C 140.302 124.387, 143.973 121.633, 162.356 96.044 C 166.128 90.795, 168.958 87.400, 168.646 88.500 C 161.230 114.679, 158.995 123.329, 159.513 123.846 C 160.680 125.014, 167.481 120.282, 170.280 116.354 C 173.674 111.593, 178.102 95.058, 178.335 86.278 C 178.483 80.710, 178.210 79.765, 175.746 77.297 L 172.992 74.538 160.617 86.883 L 148.242 99.228 150.600 88.864 C 151.897 83.164, 152.967 77.713, 152.979 76.750 C 153.003 74.776, 150.488 74.487, 147.648 76.137 M 377.075 91.727 C 372.173 94.265, 371.152 96.342, 373.138 99.739 C 375.033 102.982, 382.248 107, 386.173 107 C 388.511 107, 389.076 106.431, 389.947 103.196 C 392.256 94.624, 392.307 93.234, 390.357 92.208 C 386.362 90.108, 380.604 89.899, 377.075 91.727 M 241.217 92.113 C 238.311 92.597, 234.191 93.882, 232.061 94.969 C 228.333 96.871, 224 101.287, 224 103.184 C 224 104.339, 231.856 107.949, 234.434 107.978 C 237.499 108.013, 244.288 104.184, 246.776 101.018 C 248.027 99.425, 249.721 96.520, 250.539 94.561 L 252.027 91 249.263 91.117 C 247.744 91.181, 244.123 91.630, 241.217 92.113 M 346 91.999 C 336.862 93.551, 329 98.561, 329 102.833 C 329 105.260, 334.029 107.473, 339.578 107.488 C 345.880 107.506, 353.096 101.035, 355.453 93.250 C 356.052 91.273, 355.793 91.014, 353.317 91.118 C 351.768 91.182, 348.475 91.579, 346 91.999 M 261.128 132.345 C 260.514 133.085, 259.708 135.223, 259.337 137.095 C 258.966 138.968, 257.951 141.030, 257.081 141.679 C 255.654 142.742, 255.670 142.923, 257.250 143.536 C 258.682 144.091, 259 145.467, 259 151.107 C 259 157.793, 259.075 158, 261.500 158 C 263.929 158, 264 157.800, 264 151 C 264 145.444, 264.310 144, 265.500 144 C 266.333 144, 267 143.111, 267 142 C 267 140.889, 266.333 140, 265.500 140 C 264.567 140, 264 139.056, 264 137.500 C 264 135.500, 264.500 135, 266.500 135 C 268.333 135, 269 134.467, 269 133 C 269 131.395, 268.333 131, 265.622 131 C 263.765 131, 261.742 131.605, 261.128 132.345 M 335 135.861 C 335 140.498, 334.885 140.701, 332.518 140.248 C 324.121 138.643, 318.652 148.474, 324.093 155.392 C 326.035 157.860, 326.669 158.033, 332.843 157.776 L 339.500 157.500 339.779 144.250 L 340.058 131 337.529 131 C 335.170 131, 335 131.328, 335 135.861 M 202.594 134.614 C 202.231 135.560, 202.351 136.751, 202.861 137.261 C 204.409 138.809, 207.500 137.627, 207.500 135.486 C 207.500 132.908, 203.521 132.201, 202.594 134.614 M 232.701 133.632 C 232.316 134.018, 232 135.158, 232 136.167 C 232 137.469, 232.745 138, 234.570 138 C 236.659 138, 237.079 137.582, 236.820 135.760 C 236.503 133.543, 234.055 132.278, 232.701 133.632 M 342.363 134.497 C 342.017 135.398, 342.196 136.596, 342.761 137.161 C 344.391 138.791, 347.500 137.692, 347.500 135.486 C 347.500 132.943, 343.272 132.128, 342.363 134.497 M 166.562 142.130 C 164.455 143.788, 164 144.989, 164 148.898 C 164 154.876, 166.834 158, 172.257 158 C 175.810 158, 175.891 158.087, 176.193 162.250 C 176.448 165.783, 176.880 166.554, 178.750 166.820 C 180.987 167.137, 181 167.064, 181 153.711 L 181 140.283 175.062 140.199 C 170.534 140.135, 168.515 140.593, 166.562 142.130 M 184 147.359 C 184 157.055, 184.961 158.126, 193.336 157.763 L 199.500 157.495 199.500 148.998 C 199.500 140.947, 199.382 140.483, 197.250 140.180 C 195.136 139.880, 195 140.215, 195 145.730 C 195 151.785, 193.887 154, 190.846 154 C 189.376 154, 189.043 152.906, 188.796 147.250 C 188.527 141.117, 188.294 140.471, 186.250 140.180 C 184.088 139.873, 184 140.155, 184 147.359 M 203 149 C 203 157.906, 203.057 158.131, 205.250 157.820 C 207.382 157.517, 207.500 157.053, 207.500 149 C 207.500 140.947, 207.382 140.483, 205.250 140.180 C 203.057 139.869, 203 140.094, 203 149 M 210 142 C 210 143.622, 210.667 144, 213.532 144 L 217.063 144 212.950 149.567 C 207.609 156.798, 208.110 158, 216.469 158 C 222.333 158, 223 157.796, 223 156 C 223 154.381, 222.333 154, 219.500 154 C 217.575 154, 216 153.723, 216 153.384 C 216 153.045, 217.620 150.561, 219.599 147.864 C 224.359 141.380, 223.733 140, 216.031 140 C 210.667 140, 210 140.221, 210 142 M 232.701 140.632 C 232.316 141.018, 232 145.083, 232 149.667 C 232 157.923, 232.023 158, 234.539 158 L 237.078 158 236.789 149.261 C 236.559 142.319, 236.182 140.462, 234.951 140.227 C 234.099 140.064, 233.087 140.246, 232.701 140.632 M 240 149.246 C 240 157.896, 240.061 158.130, 242.250 157.820 C 244.268 157.533, 244.531 156.862, 244.796 151.303 C 245.041 146.192, 245.434 144.997, 247.037 144.488 C 250.251 143.468, 251 144.805, 251 151.559 C 251 157.333, 251.207 158, 253 158 C 254.833 158, 255 157.333, 255 150.035 C 255 140.644, 254.362 139.975, 245.620 140.206 L 240 140.353 240 149.246 M 270.672 142.043 C 267.319 144.681, 266.318 149.781, 268.375 153.757 C 270.181 157.251, 271.719 158, 277.082 158 C 282.531 158, 285 155.335, 285 149.455 C 285 145.962, 284.432 144.341, 282.545 142.455 C 279.466 139.375, 274.293 139.195, 270.672 142.043 M 285 140.772 C 285 141.197, 286.381 143.220, 288.070 145.269 L 291.140 148.993 287.449 153.496 L 283.759 158 286.592 158 C 288.463 158, 290.199 157.066, 291.706 155.250 L 293.986 152.500 296.502 155.316 C 298.269 157.294, 299.779 158.037, 301.580 157.816 L 304.142 157.500 300.496 153.253 L 296.849 149.006 299.925 145.275 C 301.616 143.223, 303 141.197, 303 140.772 C 303 138.964, 298.877 140.216, 296.486 142.750 L 293.890 145.500 291.658 142.750 C 289.635 140.259, 285 138.882, 285 140.772 M 305.455 142.455 C 302.044 145.866, 302.044 152.134, 305.455 155.545 C 307.315 157.406, 308.971 158, 312.300 158 C 317.645 158, 319.942 155.849, 320.710 150.126 C 321.183 146.602, 320.868 145.714, 318.202 143.048 C 314.254 139.100, 309.051 138.858, 305.455 142.455 M 342.422 141.344 C 342.138 142.083, 342.040 146.020, 342.203 150.094 C 342.476 156.908, 342.680 157.526, 344.750 157.820 C 346.941 158.131, 347 157.903, 347 149.070 C 347 140.620, 346.861 140, 344.969 140 C 343.851 140, 342.705 140.605, 342.422 141.344 M 351.036 141.456 C 349.088 143.804, 350.757 145.062, 354.935 144.394 C 357.055 144.055, 359.018 144.220, 359.355 144.765 C 359.688 145.304, 358.341 146.008, 356.356 146.330 C 350.087 147.347, 347.498 151.325, 350.029 156.053 C 350.890 157.663, 352.109 157.960, 357.529 157.878 L 364 157.781 364 150.546 C 364 144.806, 363.622 142.968, 362.171 141.655 C 359.880 139.581, 352.699 139.453, 351.036 141.456 M 376.419 142.316 C 372.815 145.416, 372.627 151.910, 376.038 155.540 C 379.976 159.732, 391.197 158.282, 389.478 153.804 C 388.924 152.359, 388.467 152.321, 385.688 153.489 C 383.698 154.326, 381.918 154.491, 380.879 153.935 C 378.655 152.745, 377.694 148.440, 379.076 145.857 C 380.040 144.057, 380.818 143.840, 384.506 144.346 C 387.750 144.790, 388.948 144.578, 389.368 143.483 C 390.839 139.651, 380.591 138.727, 376.419 142.316 M 393.672 142.043 C 390.319 144.681, 389.318 149.781, 391.375 153.757 C 393.181 157.251, 394.719 158, 400.082 158 C 405.531 158, 408 155.335, 408 149.455 C 408 145.962, 407.432 144.341, 405.545 142.455 C 402.466 139.375, 397.293 139.195, 393.672 142.043 M 410.353 141.523 C 410.107 142.163, 410.040 146.020, 410.203 150.094 C 410.476 156.908, 410.680 157.526, 412.750 157.820 C 414.833 158.115, 415 157.757, 415 153.004 C 415 146.978, 416.319 144, 418.989 144 C 420.663 144, 420.946 144.864, 421.204 150.750 C 421.473 156.883, 421.706 157.529, 423.750 157.820 C 425.864 158.120, 426 157.785, 426 152.270 C 426 146.189, 427.112 144, 430.200 144 C 431.762 144, 432 144.926, 432 151 C 432 157.800, 432.071 158, 434.500 158 C 436.921 158, 437 157.785, 437 151.223 C 437 142.908, 435.353 140, 430.643 140 C 428.859 140, 426.879 140.521, 426.242 141.158 C 425.380 142.020, 424.737 142.027, 423.723 141.185 C 421.947 139.711, 410.941 139.989, 410.353 141.523 M 168.916 146.722 C 167.363 150.805, 169.215 154.224, 172.758 153.816 C 175.158 153.539, 175.540 153.014, 175.819 149.602 C 176.150 145.558, 175.041 144.044, 171.725 144.015 C 170.706 144.007, 169.510 145.158, 168.916 146.722 M 273.243 145.157 C 269.925 148.475, 274.027 156.734, 277.809 154.349 C 278.978 153.611, 279.500 151.928, 279.500 148.891 C 279.500 144.949, 279.244 144.470, 276.993 144.207 C 275.614 144.046, 273.927 144.473, 273.243 145.157 M 308.667 144.667 C 308.300 145.033, 308 147.043, 308 149.131 C 308 151.863, 308.543 153.220, 309.934 153.965 C 312.436 155.304, 312.569 155.288, 314.429 153.429 C 316.288 151.569, 316.499 146.899, 314.800 145.200 C 313.506 143.906, 309.753 143.580, 308.667 144.667 M 328.054 145.435 C 327.399 146.224, 327.007 148.361, 327.182 150.185 C 327.430 152.768, 328.009 153.572, 329.805 153.827 C 332.896 154.265, 335 152.342, 335 149.078 C 335 144.506, 330.697 142.250, 328.054 145.435 M 396.243 145.157 C 392.925 148.475, 397.027 156.734, 400.809 154.349 C 401.978 153.611, 402.500 151.928, 402.500 148.891 C 402.500 144.949, 402.244 144.470, 399.993 144.207 C 398.614 144.046, 396.927 144.473, 396.243 145.157 M 354.667 150.667 C 353.350 151.983, 354.035 154, 355.800 154 C 357.655 154, 360 152.213, 360 150.800 C 360 149.835, 355.608 149.725, 354.667 150.667 M 224.947 154.563 C 223.399 156.429, 224.932 158.353, 227.561 157.844 C 230.116 157.348, 230.445 155.308, 228.166 154.089 C 226.679 153.293, 225.907 153.407, 224.947 154.563 M 368.250 153.731 C 367.563 153.970, 367 155.060, 367 156.153 C 367 157.638, 367.565 158.059, 369.240 157.820 C 370.472 157.644, 371.619 156.769, 371.789 155.876 C 372.121 154.132, 370.287 153.020, 368.250 153.731" stroke="none" fill="#040404" fill-rule="evenodd"/></svg>